<svg width="12" height="14" viewBox="0 0 12 14" fill="none" xmlns="http://www.w3.org/2000/svg">
<mask id="path-1-inside-1_49_209" fill="white">
<path d="M5.51167 -3.41671e-06C4.50187 -0.00210342 3.49282 0.275097 2.58742 0.832017C2.05282 1.16088 1.40947 1.76442 1.04542 2.2736C0.15127 3.52548 -0.18113 5.01018 0.0939701 6.51294C0.18142 6.99062 0.27517 7.29568 0.49567 7.82278C1.23892 9.5998 2.59342 11.4468 4.51492 13.3353C4.64212 13.4603 4.76842 13.5799 4.87282 13.6746C4.90642 13.705 4.93372 13.7283 4.96252 13.7533V13.7908L5.14297 13.893C5.21467 13.9336 5.30617 13.9818 5.43622 13.9966C5.56627 14.0116 5.70937 13.9751 5.81122 13.9215C6.01492 13.8145 6.14872 13.6681 6.39277 13.4214C8.56402 11.2266 9.84907 9.47478 10.5605 7.69916C10.9292 6.77852 11.0717 5.92494 10.991 5.05876C10.8935 4.01464 10.5632 3.1199 9.95887 2.2722C9.60187 1.7717 8.95837 1.1627 8.44087 0.843777C7.53217 0.283637 6.52162 0.00209658 5.51167 -3.41671e-06ZM5.51047 0.690757C6.37147 0.692577 7.23382 0.938417 8.02807 1.42786C8.39452 1.65382 9.06547 2.28326 9.33442 2.66028C9.87562 3.4195 10.1558 4.1741 10.244 5.11952C10.3147 5.87734 10.1965 6.6094 9.85822 7.45416C9.19372 9.11204 7.97797 10.787 5.84182 12.9464C5.63722 13.1533 5.53957 13.2297 5.49727 13.2621C5.46937 13.2383 5.43682 13.2097 5.39602 13.1725C5.28145 13.0681 5.16903 12.9617 5.05882 12.8533C3.18442 11.011 1.88887 9.22908 1.19392 7.56798C0.98167 7.06062 0.91492 6.84362 0.83302 6.3952C0.58822 5.05834 0.87832 3.76936 1.66942 2.66196C1.94707 2.27318 2.60542 1.659 3.00007 1.41638C3.78967 0.930997 4.64947 0.688797 5.51047 0.690757ZM5.64007 2.52924C5.36932 2.52056 5.09527 2.54114 4.85902 2.58832V2.58804C4.36957 2.6859 3.86137 2.93384 3.49402 3.25276C2.86162 3.80198 2.53312 4.50072 2.53312 5.30054C2.53312 5.76464 2.62282 6.12402 2.84422 6.5464C2.99932 6.84236 3.11602 6.99132 3.40222 7.25704C3.65647 7.49294 3.84217 7.62846 4.07617 7.74046C4.44127 7.91546 4.78582 8.02018 5.14717 8.05896L5.56507 8.10376V8.0626C6.29947 8.04902 6.99457 7.80556 7.53382 7.3325C8.16472 6.77894 8.48122 6.1019 8.48122 5.30054C8.48122 4.49064 8.15947 3.8129 7.51267 3.25122C7.20727 2.98606 6.82207 2.77886 6.40147 2.64642C6.17827 2.576 5.91067 2.53806 5.64007 2.52924ZM5.62207 3.25276C5.85637 3.26186 6.07957 3.28384 6.16147 3.30974C6.48697 3.41222 6.78637 3.57658 7.00177 3.76362C7.53322 4.2252 7.73122 4.64506 7.73122 5.30054C7.73122 5.94692 7.53292 6.37252 7.01992 6.82248C6.53452 7.24836 5.91757 7.43694 5.23312 7.36344H5.23282C4.96507 7.3346 4.72462 7.26446 4.41862 7.11788C4.24522 7.03472 4.16392 6.97676 3.93112 6.76074C3.65797 6.50734 3.66232 6.51392 3.51802 6.23882C3.32782 5.8758 3.28312 5.69646 3.28312 5.30054C3.28312 4.6662 3.49942 4.20406 4.00462 3.7653C4.24522 3.55628 4.69777 3.33634 5.01592 3.27278C5.14237 3.24758 5.38792 3.24366 5.62207 3.25276Z"/>
</mask>
<path d="M5.51167 -3.41671e-06C4.50187 -0.00210342 3.49282 0.275097 2.58742 0.832017C2.05282 1.16088 1.40947 1.76442 1.04542 2.2736C0.15127 3.52548 -0.18113 5.01018 0.0939701 6.51294C0.18142 6.99062 0.27517 7.29568 0.49567 7.82278C1.23892 9.5998 2.59342 11.4468 4.51492 13.3353C4.64212 13.4603 4.76842 13.5799 4.87282 13.6746C4.90642 13.705 4.93372 13.7283 4.96252 13.7533V13.7908L5.14297 13.893C5.21467 13.9336 5.30617 13.9818 5.43622 13.9966C5.56627 14.0116 5.70937 13.9751 5.81122 13.9215C6.01492 13.8145 6.14872 13.6681 6.39277 13.4214C8.56402 11.2266 9.84907 9.47478 10.5605 7.69916C10.9292 6.77852 11.0717 5.92494 10.991 5.05876C10.8935 4.01464 10.5632 3.1199 9.95887 2.2722C9.60187 1.7717 8.95837 1.1627 8.44087 0.843777C7.53217 0.283637 6.52162 0.00209658 5.51167 -3.41671e-06ZM5.51047 0.690757C6.37147 0.692577 7.23382 0.938417 8.02807 1.42786C8.39452 1.65382 9.06547 2.28326 9.33442 2.66028C9.87562 3.4195 10.1558 4.1741 10.244 5.11952C10.3147 5.87734 10.1965 6.6094 9.85822 7.45416C9.19372 9.11204 7.97797 10.787 5.84182 12.9464C5.63722 13.1533 5.53957 13.2297 5.49727 13.2621C5.46937 13.2383 5.43682 13.2097 5.39602 13.1725C5.28145 13.0681 5.16903 12.9617 5.05882 12.8533C3.18442 11.011 1.88887 9.22908 1.19392 7.56798C0.98167 7.06062 0.91492 6.84362 0.83302 6.3952C0.58822 5.05834 0.87832 3.76936 1.66942 2.66196C1.94707 2.27318 2.60542 1.659 3.00007 1.41638C3.78967 0.930997 4.64947 0.688797 5.51047 0.690757ZM5.64007 2.52924C5.36932 2.52056 5.09527 2.54114 4.85902 2.58832V2.58804C4.36957 2.6859 3.86137 2.93384 3.49402 3.25276C2.86162 3.80198 2.53312 4.50072 2.53312 5.30054C2.53312 5.76464 2.62282 6.12402 2.84422 6.5464C2.99932 6.84236 3.11602 6.99132 3.40222 7.25704C3.65647 7.49294 3.84217 7.62846 4.07617 7.74046C4.44127 7.91546 4.78582 8.02018 5.14717 8.05896L5.56507 8.10376V8.0626C6.29947 8.04902 6.99457 7.80556 7.53382 7.3325C8.16472 6.77894 8.48122 6.1019 8.48122 5.30054C8.48122 4.49064 8.15947 3.8129 7.51267 3.25122C7.20727 2.98606 6.82207 2.77886 6.40147 2.64642C6.17827 2.576 5.91067 2.53806 5.64007 2.52924ZM5.62207 3.25276C5.85637 3.26186 6.07957 3.28384 6.16147 3.30974C6.48697 3.41222 6.78637 3.57658 7.00177 3.76362C7.53322 4.2252 7.73122 4.64506 7.73122 5.30054C7.73122 5.94692 7.53292 6.37252 7.01992 6.82248C6.53452 7.24836 5.91757 7.43694 5.23312 7.36344H5.23282C4.96507 7.3346 4.72462 7.26446 4.41862 7.11788C4.24522 7.03472 4.16392 6.97676 3.93112 6.76074C3.65797 6.50734 3.66232 6.51392 3.51802 6.23882C3.32782 5.8758 3.28312 5.69646 3.28312 5.30054C3.28312 4.6662 3.49942 4.20406 4.00462 3.7653C4.24522 3.55628 4.69777 3.33634 5.01592 3.27278C5.14237 3.24758 5.38792 3.24366 5.62207 3.25276Z" fill="black"/>
<path d="M5.51167 -3.41671e-06L5.50751 1.99999L5.50751 1.99999L5.51167 -3.41671e-06ZM2.58742 0.832017L1.53957 -0.871509L1.53951 -0.871477L2.58742 0.832017ZM1.04542 2.2736L-0.581518 1.11038L-0.582078 1.11116L1.04542 2.2736ZM0.0939701 6.51294L-1.87334 6.87308L-1.87333 6.8731L0.0939701 6.51294ZM0.49567 7.82278L2.34078 7.05105L2.34073 7.05094L0.49567 7.82278ZM4.51492 13.3353L5.91686 11.9089L5.91682 11.9089L4.51492 13.3353ZM4.87282 13.6746L3.52848 15.1554L3.53148 15.1581L4.87282 13.6746ZM4.96252 13.7533H6.96252V12.8424L6.27537 12.2445L4.96252 13.7533ZM4.96252 13.7908H2.96252V14.9566L3.97689 15.5311L4.96252 13.7908ZM5.14297 13.893L4.15734 15.6333L4.1575 15.6334L5.14297 13.893ZM5.43622 13.9966L5.66508 12.0098L5.66297 12.0095L5.43622 13.9966ZM5.81122 13.9215L4.88143 12.1507L4.87953 12.1517L5.81122 13.9215ZM6.39277 13.4214L7.81454 14.828L7.81459 14.8279L6.39277 13.4214ZM10.5605 7.69916L12.417 8.44302L12.4172 8.44271L10.5605 7.69916ZM10.991 5.05876L12.9824 4.87322L12.9824 4.87281L10.991 5.05876ZM9.95887 2.2722L11.5874 1.11118L11.5871 1.1108L9.95887 2.2722ZM8.44087 0.843777L7.3914 2.54631L7.39158 2.54642L8.44087 0.843777ZM5.51047 0.690757L5.50592 2.69075L5.50624 2.69075L5.51047 0.690757ZM8.02807 1.42786L9.07779 -0.274521L9.07731 -0.274818L8.02807 1.42786ZM9.33442 2.66028L10.963 1.49936L10.9626 1.4988L9.33442 2.66028ZM10.244 5.11952L12.2354 4.93387L12.2354 4.93374L10.244 5.11952ZM9.85822 7.45416L11.7147 8.19824L11.7149 8.19759L9.85822 7.45416ZM5.84182 12.9464L4.41999 11.5398L4.41966 11.5401L5.84182 12.9464ZM5.49727 13.2621L4.19928 14.7836L5.42848 15.8322L6.712 14.8509L5.49727 13.2621ZM5.39602 13.1725L6.74432 11.6953L6.743 11.6941L5.39602 13.1725ZM5.05882 12.8533L6.46124 11.4273L6.46075 11.4269L5.05882 12.8533ZM1.19392 7.56798L-0.651134 8.33984L-0.651118 8.33988L1.19392 7.56798ZM0.83302 6.3952L2.80047 6.03586L2.80031 6.03496L0.83302 6.3952ZM1.66942 2.66196L3.29682 3.82453L3.29699 3.82429L1.66942 2.66196ZM3.00007 1.41638L1.9527 -0.287448L1.95263 -0.287405L3.00007 1.41638ZM5.64007 2.52924L5.70522 0.530298L5.70416 0.530263L5.64007 2.52924ZM4.85902 2.58832H2.85902V5.02722L5.25069 4.54959L4.85902 2.58832ZM4.85902 2.58804H6.85902V0.148575L4.4669 0.626852L4.85902 2.58804ZM3.49402 3.25276L2.18287 1.7425L2.18261 1.74273L3.49402 3.25276ZM2.84422 6.5464L4.6157 5.61804L4.61562 5.61788L2.84422 6.5464ZM3.40222 7.25704L2.04142 8.72272L2.0419 8.72317L3.40222 7.25704ZM4.07617 7.74046L4.94064 5.93693L4.93963 5.93645L4.07617 7.74046ZM5.14717 8.05896L4.93376 10.0475L4.93399 10.0476L5.14717 8.05896ZM5.56507 8.10376L5.35189 10.0924L7.56507 10.3296V8.10376H5.56507ZM5.56507 8.0626L5.52809 6.06294L3.56507 6.09924V8.0626H5.56507ZM7.53382 7.3325L8.85275 8.83597L8.85288 8.83585L7.53382 7.3325ZM7.51267 3.25122L8.82402 1.74113L8.82389 1.74101L7.51267 3.25122ZM6.40147 2.64642L5.79971 4.55374L5.80078 4.55408L6.40147 2.64642ZM5.62207 3.25276L5.5444 5.25125L5.54445 5.25125L5.62207 3.25276ZM6.16147 3.30974L5.55843 5.21666L5.56086 5.21742L6.16147 3.30974ZM7.00177 3.76362L8.31324 2.25363L8.31307 2.25349L7.00177 3.76362ZM7.01992 6.82248L5.70111 5.3189L5.70089 5.3191L7.01992 6.82248ZM5.23312 7.36344L5.44666 5.37487L5.3402 5.36344H5.23312V7.36344ZM5.23282 7.36344L5.01863 9.35193L5.12542 9.36344H5.23282V7.36344ZM4.41862 7.11788L3.55377 8.92121L3.5546 8.92161L4.41862 7.11788ZM3.93112 6.76074L5.29151 5.29467L5.29133 5.29451L3.93112 6.76074ZM3.51802 6.23882L1.74645 7.16701L1.74689 7.16784L3.51802 6.23882ZM4.00462 3.7653L5.31605 5.27531L5.31627 5.27512L4.00462 3.7653ZM5.01592 3.27278L4.62503 1.31135L4.6241 1.31153L5.01592 3.27278ZM5.51167 -3.41671e-06L5.51583 -2C4.13413 -2.00287 2.76088 -1.62275 1.53957 -0.871509L2.58742 0.832017L3.63527 2.53554C4.22476 2.17294 4.86961 1.99867 5.50751 1.99999L5.51167 -3.41671e-06ZM2.58742 0.832017L1.53951 -0.871477C0.774418 -0.400828 -0.0647393 0.387586 -0.581518 1.11038L1.04542 2.2736L2.67236 3.43681C2.88368 3.14125 3.33122 2.72258 3.63533 2.53551L2.58742 0.832017ZM1.04542 2.2736L-0.582078 1.11116C-1.78915 2.80115 -2.24649 4.83471 -1.87334 6.87308L0.0939701 6.51294L2.06128 6.15279C1.88423 5.18564 2.09169 4.2498 2.67292 3.43603L1.04542 2.2736ZM0.0939701 6.51294L-1.87333 6.8731C-1.75584 7.51486 -1.61554 7.9584 -1.34939 8.59462L0.49567 7.82278L2.34073 7.05094C2.16588 6.63296 2.11868 6.46637 2.06127 6.15278L0.0939701 6.51294ZM0.49567 7.82278L-1.34944 8.59451C-0.469439 10.6985 1.07681 12.7605 3.11302 14.7617L4.51492 13.3353L5.91682 11.9089C4.11003 10.1331 2.94728 8.50111 2.34078 7.05105L0.49567 7.82278ZM4.51492 13.3353L3.11298 14.7617C3.25574 14.902 3.40139 15.0401 3.52848 15.1554L4.87282 13.6746L6.21716 12.1938C6.13545 12.1197 6.0285 12.0186 5.91686 11.9089L4.51492 13.3353ZM4.87282 13.6746L3.53148 15.1581C3.58388 15.2055 3.63785 15.2518 3.64967 15.2621L4.96252 13.7533L6.27537 12.2445C6.26596 12.2363 6.25687 12.2285 6.25026 12.2228C6.24301 12.2165 6.23793 12.2121 6.23315 12.2079C6.22438 12.2003 6.21896 12.1955 6.21416 12.1911L4.87282 13.6746ZM4.96252 13.7533H2.96252V13.7908H4.96252H6.96252V13.7533H4.96252ZM4.96252 13.7908L3.97689 15.5311L4.15734 15.6333L5.14297 13.893L6.1286 12.1528L5.94815 12.0506L4.96252 13.7908ZM5.14297 13.893L4.1575 15.6334C4.29612 15.7119 4.67187 15.9224 5.20947 15.9837L5.43622 13.9966L5.66297 12.0095C5.79342 12.0244 5.90847 12.0573 6.00156 12.094C6.08683 12.1276 6.14381 12.1614 6.12844 12.1527L5.14297 13.893ZM5.43622 13.9966L5.20736 15.9835C5.80995 16.0529 6.35561 15.8951 6.74291 15.6912L5.81122 13.9215L4.87953 12.1517C4.99533 12.0908 5.10645 12.0526 5.21272 12.0297C5.31773 12.0071 5.47253 11.9876 5.66508 12.0098L5.43622 13.9966ZM5.81122 13.9215L6.74101 15.6922C7.28594 15.4061 7.66993 14.9742 7.81454 14.828L6.39277 13.4214L4.971 12.0148C4.93859 12.0475 4.90715 12.0795 4.88144 12.1056C4.85442 12.133 4.83253 12.1552 4.81276 12.1749C4.77195 12.2158 4.75355 12.233 4.74584 12.24C4.74021 12.2451 4.75308 12.233 4.77982 12.2136C4.80852 12.1928 4.84327 12.1708 4.88143 12.1507L5.81122 13.9215ZM6.39277 13.4214L7.81459 14.8279C10.0666 12.5515 11.5622 10.5765 12.417 8.44302L10.5605 7.69916L8.704 6.95529C8.13592 8.3731 7.0614 9.90171 4.97096 12.0148L6.39277 13.4214ZM10.5605 7.69916L12.4172 8.44271C12.8842 7.27647 13.0971 6.10409 12.9824 4.87322L10.991 5.05876L8.99964 5.24429C9.04637 5.74578 8.97422 6.28056 8.70388 6.9556L10.5605 7.69916ZM10.991 5.05876L12.9824 4.87281C12.8525 3.48221 12.3994 2.25015 11.5874 1.11118L9.95887 2.2722L8.33036 3.43321C8.72705 3.98964 8.93454 4.54706 8.99968 5.24471L10.991 5.05876ZM9.95887 2.2722L11.5871 1.1108C11.0817 0.402251 10.2442 -0.394159 9.49016 -0.858866L8.44087 0.843777L7.39158 2.54642C7.67252 2.71955 8.12203 3.14114 8.33063 3.4336L9.95887 2.2722ZM8.44087 0.843777L9.49034 -0.858754C8.26966 -1.6112 6.89771 -1.99713 5.51583 -2L5.51167 -3.41671e-06L5.50751 1.99999C6.14553 2.00132 6.79468 2.17848 7.3914 2.54631L8.44087 0.843777ZM5.51047 0.690757L5.50624 2.69075C5.98219 2.69176 6.48494 2.82618 6.97883 3.13053L8.02807 1.42786L9.07731 -0.274818C7.9827 -0.949349 6.76075 -1.30661 5.5147 -1.30924L5.51047 0.690757ZM8.02807 1.42786L6.97835 3.13023C6.96565 3.1224 7.00068 3.14399 7.08554 3.21314C7.16225 3.27565 7.25295 3.35518 7.34674 3.4435C7.44044 3.53173 7.52705 3.61914 7.59736 3.69547C7.63217 3.73325 7.65965 3.76471 7.67997 3.78909C7.70121 3.81456 7.70868 3.82517 7.70624 3.82175L9.33442 2.66028L10.9626 1.4988C10.7162 1.15339 10.3717 0.797614 10.0889 0.53134C9.80991 0.268658 9.43424 -0.0547278 9.07779 -0.274521L8.02807 1.42786ZM9.33442 2.66028L7.70584 3.82119C8.03966 4.28949 8.19684 4.70685 8.25267 5.30529L10.244 5.11952L12.2354 4.93374C12.1148 3.64135 11.7116 2.5495 10.963 1.49936L9.33442 2.66028ZM10.244 5.11952L8.25266 5.30517C8.28921 5.69729 8.24188 6.11046 8.00153 6.71072L9.85822 7.45416L11.7149 8.19759C12.1511 7.10833 12.3401 6.05738 12.2354 4.93387L10.244 5.11952ZM9.85822 7.45416L8.00179 6.71007C7.48085 8.00979 6.47597 9.46148 4.41999 11.5398L5.84182 12.9464L7.26365 14.3529C9.47997 12.1125 10.9066 10.2143 11.7147 8.19824L9.85822 7.45416ZM5.84182 12.9464L4.41966 11.5401C4.34215 11.6185 4.29851 11.6584 4.28171 11.6733C4.27373 11.6804 4.27175 11.6819 4.275 11.6792C4.27915 11.6758 4.28339 11.6726 4.28254 11.6732L5.49727 13.2621L6.712 14.8509C6.83498 14.7569 7.00144 14.6181 7.26398 14.3526L5.84182 12.9464ZM5.49727 13.2621L6.79526 11.7405C6.78511 11.7318 6.76933 11.7181 6.74432 11.6953L5.39602 13.1725L4.04772 14.6496C4.10431 14.7013 4.15363 14.7447 4.19928 14.7836L5.49727 13.2621ZM5.39602 13.1725L6.743 11.6941C6.6472 11.6068 6.55326 11.5178 6.46124 11.4273L5.05882 12.8533L3.6564 14.2792C3.7848 14.4055 3.91571 14.5294 4.04904 14.6508L5.39602 13.1725ZM5.05882 12.8533L6.46075 11.4269C4.70105 9.69734 3.59718 8.13035 3.03896 6.79607L1.19392 7.56798L-0.651118 8.33988C0.180564 10.3278 1.66779 12.3247 3.65689 14.2796L5.05882 12.8533ZM1.19392 7.56798L3.03897 6.79611C2.94055 6.56083 2.90062 6.45083 2.87614 6.37128C2.85466 6.30147 2.83401 6.21948 2.80047 6.03586L0.83302 6.3952L-1.13443 6.75453C-1.02206 7.36983 -0.907979 7.72588 -0.651134 8.33984L1.19392 7.56798ZM0.83302 6.3952L2.80031 6.03496C2.6536 5.23377 2.81874 4.49376 3.29682 3.82453L1.66942 2.66196L0.0420227 1.49938C-1.0621 3.04496 -1.47716 4.8829 -1.13427 6.75544L0.83302 6.3952ZM1.66942 2.66196L3.29699 3.82429C3.29683 3.82451 3.30589 3.81198 3.32728 3.78627C3.34797 3.76143 3.37541 3.72999 3.40974 3.69273C3.47914 3.61743 3.56426 3.53178 3.65682 3.44524C3.74942 3.35866 3.83989 3.28011 3.91822 3.21711C3.95697 3.18594 3.9891 3.16152 4.01388 3.14357C4.03968 3.12489 4.05061 3.11825 4.04751 3.12016L3.00007 1.41638L1.95263 -0.287405C1.58982 -0.0643592 1.21419 0.252997 0.924915 0.523477C0.634453 0.795066 0.291813 1.14961 0.0418542 1.49962L1.66942 2.66196ZM3.00007 1.41638L4.04744 3.1202C4.53308 2.82167 5.03053 2.68967 5.50592 2.69075L5.51047 0.690757L5.51502 -1.30924C4.26841 -1.31208 3.04626 -0.959676 1.9527 -0.287448L3.00007 1.41638ZM5.64007 2.52924L5.70416 0.530263C5.30039 0.517319 4.87187 0.546259 4.46735 0.627044L4.85902 2.58832L5.25069 4.54959C5.31867 4.53601 5.43825 4.52379 5.57599 4.52821L5.64007 2.52924ZM4.85902 2.58832H6.85902V2.58804H4.85902H2.85902V2.58832H4.85902ZM4.85902 2.58804L4.4669 0.626852C3.64471 0.791241 2.818 1.1911 2.18287 1.7425L3.49402 3.25276L4.80517 4.76301C4.90474 4.67657 5.09443 4.58055 5.25114 4.54922L4.85902 2.58804ZM3.49402 3.25276L2.18261 1.74273C1.13764 2.65025 0.53312 3.88931 0.53312 5.30054H2.53312H4.53312C4.53312 5.11213 4.5856 4.95371 4.80543 4.76279L3.49402 3.25276ZM2.53312 5.30054H0.53312C0.53312 6.09702 0.705473 6.7741 1.07282 7.47491L2.84422 6.5464L4.61562 5.61788C4.56345 5.51835 4.55045 5.47216 4.54608 5.45462C4.542 5.43831 4.53312 5.3983 4.53312 5.30054H2.53312ZM2.84422 6.5464L1.07274 7.47475C1.34879 8.00152 1.61529 8.32708 2.04142 8.72272L3.40222 7.25704L4.76302 5.79135C4.65244 5.68869 4.63813 5.66651 4.64732 5.67821C4.6528 5.68519 4.65583 5.69012 4.65402 5.68721C4.65062 5.68175 4.63914 5.66275 4.6157 5.61804L2.84422 6.5464ZM3.40222 7.25704L2.0419 8.72317C2.3861 9.04252 2.73753 9.31703 3.21271 9.54446L4.07617 7.74046L4.93963 5.93645C4.92789 5.93083 4.92525 5.92924 4.91539 5.92213C4.89787 5.90952 4.85397 5.87574 4.76254 5.79091L3.40222 7.25704ZM4.07617 7.74046L3.2117 9.54398C3.74729 9.8007 4.31136 9.98074 4.93376 10.0475L5.14717 8.05896L5.36058 6.07038C5.26028 6.05961 5.13525 6.03022 4.94064 5.93693L4.07617 7.74046ZM5.14717 8.05896L4.93399 10.0476L5.35189 10.0924L5.56507 8.10376L5.77825 6.11515L5.36035 6.07035L5.14717 8.05896ZM5.56507 8.10376H7.56507V8.0626H5.56507H3.56507V8.10376H5.56507ZM5.56507 8.0626L5.60205 10.0623C6.7539 10.041 7.91891 9.65518 8.85275 8.83597L7.53382 7.3325L6.21489 5.82902C6.07023 5.95593 5.84504 6.05708 5.52809 6.06294L5.56507 8.0626ZM7.53382 7.3325L8.85288 8.83585C9.89155 7.92451 10.4812 6.71015 10.4812 5.30054H8.48122H6.48122C6.48122 5.49364 6.43789 5.63336 6.21476 5.82914L7.53382 7.3325ZM8.48122 5.30054H10.4812C10.4812 3.87067 9.87662 2.65521 8.82402 1.74113L7.51267 3.25122L6.20132 4.7613C6.44232 4.97059 6.48122 5.1106 6.48122 5.30054H8.48122ZM7.51267 3.25122L8.82389 1.74101C8.28579 1.27382 7.64994 0.942729 7.00216 0.738756L6.40147 2.64642L5.80078 4.55408C5.99421 4.61498 6.12875 4.69829 6.20145 4.76142L7.51267 3.25122ZM6.40147 2.64642L7.00323 0.739094C6.55972 0.599165 6.10192 0.543228 5.70522 0.530298L5.64007 2.52924L5.57492 4.52817C5.63992 4.53029 5.69623 4.53572 5.74042 4.54238C5.78624 4.54929 5.80499 4.55541 5.79971 4.55374L6.40147 2.64642ZM5.62207 3.25276L5.54445 5.25125C5.58449 5.2528 5.62306 5.25488 5.65819 5.25726C5.69372 5.25967 5.72234 5.26218 5.74294 5.26431C5.75302 5.26536 5.75955 5.26614 5.76271 5.26655C5.76616 5.26699 5.7636 5.26672 5.75595 5.26548C5.75194 5.26483 5.74567 5.26377 5.73742 5.26225C5.72927 5.26074 5.71787 5.25853 5.70377 5.25549C5.68986 5.2525 5.67097 5.24821 5.64817 5.24237C5.6258 5.23664 5.59511 5.22826 5.55843 5.21666L6.16147 3.30974L6.76451 1.40282C6.50588 1.32103 6.24157 1.29456 6.1549 1.28558C6.00883 1.27046 5.85076 1.26013 5.69969 1.25426L5.62207 3.25276ZM6.16147 3.30974L5.56086 5.21742C5.60123 5.23013 5.63925 5.24669 5.66927 5.26297C5.70097 5.28017 5.70641 5.28759 5.69047 5.27374L7.00177 3.76362L8.31307 2.25349C7.86466 1.86411 7.31442 1.57595 6.76208 1.40205L6.16147 3.30974ZM7.00177 3.76362L5.6903 5.2736C5.75774 5.33217 5.78439 5.36341 5.78942 5.36958C5.79145 5.37207 5.78809 5.3682 5.78168 5.35819C5.77514 5.34797 5.76692 5.33369 5.75851 5.31595C5.75008 5.29816 5.74309 5.28033 5.7377 5.26366C5.73235 5.24715 5.72962 5.23502 5.72845 5.22897C5.72626 5.21764 5.73122 5.23625 5.73122 5.30054H7.73122H9.73122C9.73122 4.76409 9.64871 4.18433 9.37307 3.60277C9.10181 3.03046 8.71072 2.59886 8.31324 2.25363L7.00177 3.76362ZM7.73122 5.30054H5.73122C5.73122 5.3607 5.72653 5.37877 5.72847 5.36867C5.7295 5.36335 5.73196 5.35237 5.7368 5.33725C5.74169 5.32199 5.74807 5.30548 5.75585 5.28882C5.76361 5.2722 5.77131 5.25855 5.77768 5.24843C5.78394 5.23848 5.78757 5.23408 5.78649 5.23542C5.78362 5.23901 5.76102 5.26635 5.70111 5.3189L7.01992 6.82248L8.33873 8.32605C8.73407 7.9793 9.11561 7.54769 9.38005 6.98151C9.6476 6.40864 9.73122 5.83557 9.73122 5.30054H7.73122ZM7.01992 6.82248L5.70089 5.3191C5.66802 5.34794 5.64301 5.35954 5.62032 5.36643C5.59606 5.37379 5.54237 5.38515 5.44666 5.37487L5.23312 7.36344L5.01958 9.352C6.22523 9.48147 7.40727 9.1433 8.33895 8.32586L7.01992 6.82248ZM5.23312 7.36344V5.36344H5.23282V7.36344V9.36344H5.23312V7.36344ZM5.23282 7.36344L5.44701 5.37494C5.4274 5.37283 5.42112 5.37106 5.4136 5.36881C5.40186 5.3653 5.36338 5.35282 5.28265 5.31414L4.41862 7.11788L3.5546 8.92161C4.03003 9.14935 4.48963 9.29495 5.01863 9.35193L5.23282 7.36344ZM4.41862 7.11788L5.28347 5.31454C5.2656 5.30597 5.27629 5.3105 5.29928 5.32373C5.31126 5.33062 5.32479 5.33883 5.33913 5.34814C5.35343 5.35743 5.36591 5.36613 5.37614 5.37359C5.39589 5.388 5.4017 5.39383 5.38665 5.38086C5.37924 5.37447 5.36804 5.36463 5.35183 5.35C5.33562 5.33537 5.31593 5.31733 5.29151 5.29467L3.93112 6.76074L2.57073 8.2268C2.8789 8.51276 3.128 8.71703 3.55377 8.92121L4.41862 7.11788ZM3.93112 6.76074L5.29133 5.29451C5.27357 5.27803 5.25855 5.26411 5.2441 5.25068C5.22987 5.23747 5.21783 5.22626 5.20722 5.21634C5.19662 5.20642 5.18837 5.19864 5.18178 5.19238C5.1752 5.18612 5.17117 5.18223 5.16899 5.1801C5.16684 5.178 5.16734 5.17845 5.1698 5.18095C5.1723 5.1835 5.17729 5.18864 5.18412 5.19599C5.19102 5.20343 5.19983 5.21315 5.21002 5.22495C5.22028 5.23683 5.23144 5.25024 5.2432 5.26506C5.25499 5.27993 5.26652 5.29514 5.27768 5.31055C5.28882 5.32593 5.29877 5.34039 5.30751 5.35359C5.32483 5.37973 5.33578 5.39851 5.33909 5.40428C5.34075 5.40716 5.34095 5.40759 5.33932 5.40461C5.33766 5.4016 5.33482 5.39636 5.33029 5.38789C5.32575 5.37938 5.32027 5.36903 5.31324 5.35567C5.30611 5.34213 5.29849 5.3276 5.28915 5.30979L3.51802 6.23882L1.74689 7.16784C1.78826 7.24672 1.91559 7.50654 2.1093 7.75076C2.20854 7.87588 2.30421 7.97342 2.37427 8.04184C2.43768 8.10376 2.51262 8.17289 2.57091 8.22696L3.93112 6.76074ZM3.51802 6.23882L5.28959 5.31062C5.27381 5.28051 5.26313 5.25913 5.25595 5.24419C5.24885 5.22942 5.24628 5.22323 5.24649 5.22373C5.24684 5.22456 5.25007 5.23237 5.25463 5.24587C5.25931 5.25969 5.26452 5.27691 5.26945 5.29663C5.27439 5.31638 5.2781 5.3348 5.28074 5.35083C5.28332 5.36655 5.28441 5.37706 5.28473 5.38061C5.28502 5.38378 5.28456 5.37987 5.28407 5.36642C5.28357 5.35273 5.28312 5.33172 5.28312 5.30054H3.28312H1.28312C1.28312 5.56773 1.29662 5.89797 1.38904 6.2674C1.48045 6.6328 1.62282 6.93105 1.74645 7.16701L3.51802 6.23882ZM3.28312 5.30054H5.28312C5.28312 5.25567 5.28693 5.24224 5.28517 5.25096C5.28431 5.25524 5.28237 5.26347 5.27873 5.2746C5.27506 5.28579 5.27037 5.29772 5.26481 5.30958C5.25925 5.32141 5.25386 5.33096 5.24957 5.33781C5.24534 5.34456 5.24321 5.34707 5.24466 5.34524C5.2478 5.34128 5.26719 5.31775 5.31605 5.27531L4.00462 3.7653L2.69319 2.25528C2.28246 2.61199 1.90606 3.05149 1.64403 3.60957C1.3797 4.17257 1.28312 4.74679 1.28312 5.30054H3.28312ZM4.00462 3.7653L5.31627 5.27512C5.29574 5.29295 5.2824 5.30279 5.27881 5.30539C5.27478 5.30832 5.27596 5.30726 5.28293 5.30288C5.29798 5.29343 5.3236 5.27879 5.35643 5.26281C5.38919 5.24686 5.41766 5.23518 5.43661 5.22833C5.44549 5.22513 5.4487 5.22428 5.44601 5.22506C5.44377 5.22571 5.43076 5.22942 5.40774 5.23402L5.01592 3.27278L4.6241 1.31153C4.24595 1.38708 3.88652 1.52962 3.60594 1.66617C3.32718 1.80185 2.98882 1.99845 2.69297 2.25547L4.00462 3.7653ZM5.01592 3.27278L5.40681 5.23421C5.36864 5.24181 5.34045 5.24581 5.32605 5.24768C5.31076 5.24966 5.30163 5.25045 5.29999 5.25059C5.29775 5.25078 5.3087 5.24985 5.3348 5.24911C5.38762 5.24763 5.46188 5.24804 5.5444 5.25125L5.62207 3.25276L5.69974 1.25427C5.47412 1.2455 5.01073 1.23448 4.62503 1.31135L5.01592 3.27278Z" fill="black" mask="url(#path-1-inside-1_49_209)"/>
</svg>
