<svg width="28" height="20" viewBox="0 0 28 20" fill="none" xmlns="http://www.w3.org/2000/svg">
<path fill-rule="evenodd" clip-rule="evenodd" d="M5.15625 0C5.42975 0 5.69206 0.108649 5.88545 0.302046C6.07885 0.495443 6.1875 0.757746 6.1875 1.03125V2.75H13.0625V1.03125C13.0625 0.757746 13.1712 0.495443 13.3645 0.302046C13.5579 0.108649 13.8202 0 14.0938 0C14.3673 0 14.6296 0.108649 14.823 0.302046C15.0163 0.495443 15.125 0.757746 15.125 1.03125V2.75H17.875C18.2397 2.75 18.5894 2.89487 18.8473 3.15273C19.1051 3.41059 19.25 3.76033 19.25 4.125V17.875C19.25 18.2397 19.1051 18.5894 18.8473 18.8473C18.5894 19.1051 18.2397 19.25 17.875 19.25H1.375C1.01033 19.25 0.660591 19.1051 0.402728 18.8473C0.144866 18.5894 0 18.2397 0 17.875V4.125C0 3.76033 0.144866 3.41059 0.402728 3.15273C0.660591 2.89487 1.01033 2.75 1.375 2.75H4.125V1.03125C4.125 0.757746 4.23365 0.495443 4.42705 0.302046C4.62044 0.108649 4.88275 0 5.15625 0ZM2.0625 4.8125V6.875H17.1875V4.8125H2.0625ZM2.0625 17.1875V8.9375H17.1875V17.1875H2.0625ZM13.75 13.75C14.1147 13.75 14.4644 13.6051 14.7223 13.3473C14.9801 13.0894 15.125 12.7397 15.125 12.375C15.125 12.0103 14.9801 11.6606 14.7223 11.4027C14.4644 11.1449 14.1147 11 13.75 11C13.3853 11 13.0356 11.1449 12.7777 11.4027C12.5199 11.6606 12.375 12.0103 12.375 12.375C12.375 12.7397 12.5199 13.0894 12.7777 13.3473C13.0356 13.6051 13.3853 13.75 13.75 13.75Z" fill="#5080E9"/>
<g clip-path="url(#clip0_51_245)">
<path d="M24 14.8C26.2094 14.8 28 14.0531 28 13.1328C28 12.2125 26.2094 11.4656 24 11.4656C21.7906 11.4656 20 12.2125 20 13.1328C20 14.0531 21.7906 14.8 24 14.8ZM24 17.4656C22.4734 17.4656 21.1234 17.0984 20.2719 16.5312C20.0984 16.7187 20 16.9203 20 17.1328C20 18.0531 21.7906 18.8 24 18.8C26.2094 18.8 28 18.0531 28 17.1328C28 16.9203 27.9016 16.7187 27.7281 16.5328C26.8766 17.0984 25.5266 17.4656 24 17.4656ZM24 15.4656C22.4734 15.4656 21.1234 15.0984 20.2719 14.5312C20.0984 14.7187 20 14.9203 20 15.1328C20 16.0531 21.7906 16.8 24 16.8C26.2094 16.8 28 16.0531 28 15.1328C28 14.9203 27.9016 14.7187 27.7281 14.5328C26.8766 15.0984 25.5266 15.4656 24 15.4656Z" fill="#5080E9"/>
</g>
<defs>
<clipPath id="clip0_51_245">
<rect width="8" height="8" fill="white" transform="translate(20 11)"/>
</clipPath>
</defs>
</svg>
