<svg width="12" height="13" viewBox="0 0 12 13" fill="none" xmlns="http://www.w3.org/2000/svg">
<path d="M9.91667 1.25H8.75V0.625C8.75 0.45924 8.68854 0.300268 8.57915 0.183058C8.46975 0.065848 8.32138 0 8.16667 0C8.01196 0 7.86358 0.065848 7.75419 0.183058C7.64479 0.300268 7.58333 0.45924 7.58333 0.625V1.25H4.08333V0.625C4.08333 0.45924 4.02188 0.300268 3.91248 0.183058C3.80308 0.065848 3.65471 0 3.5 0C3.34529 0 3.19692 0.065848 3.08752 0.183058C2.97813 0.300268 2.91667 0.45924 2.91667 0.625V1.25H1.75C1.28587 1.25 0.840752 1.44754 0.512563 1.79918C0.184375 2.15081 0 2.62772 0 3.125V10.625C0 11.1223 0.184375 11.5992 0.512563 11.9508C0.840752 12.3025 1.28587 12.5 1.75 12.5H9.91667C10.3808 12.5 10.8259 12.3025 11.1541 11.9508C11.4823 11.5992 11.6667 11.1223 11.6667 10.625V3.125C11.6667 2.62772 11.4823 2.15081 11.1541 1.79918C10.8259 1.44754 10.3808 1.25 9.91667 1.25ZM10.5 10.625C10.5 10.7908 10.4385 10.9497 10.3291 11.0669C10.2198 11.1842 10.0714 11.25 9.91667 11.25H1.75C1.59529 11.25 1.44692 11.1842 1.33752 11.0669C1.22813 10.9497 1.16667 10.7908 1.16667 10.625V6.25H10.5V10.625ZM10.5 5H1.16667V3.125C1.16667 2.95924 1.22813 2.80027 1.33752 2.68306C1.44692 2.56585 1.59529 2.5 1.75 2.5H2.91667V3.125C2.91667 3.29076 2.97813 3.44973 3.08752 3.56694C3.19692 3.68415 3.34529 3.75 3.5 3.75C3.65471 3.75 3.80308 3.68415 3.91248 3.56694C4.02188 3.44973 4.08333 3.29076 4.08333 3.125V2.5H7.58333V3.125C7.58333 3.29076 7.64479 3.44973 7.75419 3.56694C7.86358 3.68415 8.01196 3.75 8.16667 3.75C8.32138 3.75 8.46975 3.68415 8.57915 3.56694C8.68854 3.44973 8.75 3.29076 8.75 3.125V2.5H9.91667C10.0714 2.5 10.2198 2.56585 10.3291 2.68306C10.4385 2.80027 10.5 2.95924 10.5 3.125V5Z" fill="black"/>
</svg>
