<svg width="24" height="21" viewBox="0 0 24 21" fill="none" xmlns="http://www.w3.org/2000/svg">
<path d="M4.16669 17.8889V1H18.9445V17.8889C18.9445 18.4488 18.722 18.9858 18.3261 19.3817C17.9302 19.7776 17.3933 20 16.8334 20H6.2778C5.7179 20 5.18093 19.7776 4.78502 19.3817C4.38911 18.9858 4.16669 18.4488 4.16669 17.8889Z" stroke="#10B3BE" stroke-width="2"/>
<path d="M4.16667 4.16667H2.58333C2.16341 4.16667 1.76068 3.99985 1.46375 3.70292C1.16682 3.40599 1 3.00326 1 2.58333C1 2.16341 1.16682 1.76068 1.46375 1.46375C1.76068 1.16682 2.16341 1 2.58333 1H20.5278C20.9477 1 21.3504 1.16682 21.6474 1.46375C21.9443 1.76068 22.1111 2.16341 22.1111 2.58333C22.1111 3.00326 21.9443 3.40599 21.6474 3.70292C21.3504 3.99985 20.9477 4.16667 20.5278 4.16667H18.9444" stroke="#10B3BE" stroke-width="2"/>
<path d="M14.7222 1V20" stroke="#10B3BE" stroke-width="2" stroke-linecap="round" stroke-linejoin="round"/>
</svg>
