<svg width="13" height="9" viewBox="0 0 13 9" fill="none" xmlns="http://www.w3.org/2000/svg">
<path d="M11.7812 9H1.21875C0.544375 9 0 8.4975 0 7.875V1.125C0 0.5025 0.544375 0 1.21875 0H11.7812C12.4556 0 13 0.5025 13 1.125V7.875C13 8.4975 12.4556 9 11.7812 9ZM1.21875 0.75C0.99125 0.75 0.8125 0.915 0.8125 1.125V7.875C0.8125 8.085 0.99125 8.25 1.21875 8.25H11.7812C12.0087 8.25 12.1875 8.085 12.1875 7.875V1.125C12.1875 0.915 12.0087 0.75 11.7812 0.75H1.21875Z" fill="black"/>
<path d="M6.50003 5.97C5.93128 5.97 5.41128 5.76 5.02128 5.3775L0.755654 1.1925C0.601279 1.0425 0.609404 0.802497 0.771904 0.659997C0.934404 0.517497 1.1944 0.524997 1.34878 0.674997L5.6144 4.86C6.07753 5.3175 6.92253 5.3175 7.38565 4.86L11.6513 0.682497C11.8057 0.532497 12.0657 0.524997 12.2282 0.667497C12.3907 0.809997 12.3988 1.05 12.2444 1.2L7.97878 5.385C7.58878 5.7675 7.06878 5.9775 6.50003 5.9775V5.97Z" fill="black"/>
</svg>
