<svg width="21" height="18" viewBox="0 0 21 18" fill="none" xmlns="http://www.w3.org/2000/svg">
<path d="M2.4 4.8C3.72548 4.8 4.8 3.72548 4.8 2.4C4.8 1.07452 3.72548 0 2.4 0C1.07452 0 0 1.07452 0 2.4C0 3.72548 1.07452 4.8 2.4 4.8Z" fill="black"/>
<path d="M2.4 11.2C3.72548 11.2 4.8 10.1255 4.8 8.80001C4.8 7.47453 3.72548 6.40001 2.4 6.40001C1.07452 6.40001 0 7.47453 0 8.80001C0 10.1255 1.07452 11.2 2.4 11.2Z" fill="black"/>
<path d="M2.4 17.6C3.72548 17.6 4.8 16.5255 4.8 15.2C4.8 13.8745 3.72548 12.8 2.4 12.8C1.07452 12.8 0 13.8745 0 15.2C0 16.5255 1.07452 17.6 2.4 17.6Z" fill="black"/>
<path d="M8 2.40001H19.2M8 8.80001H19.2M8 15.2H19.2" stroke="black" stroke-width="3" stroke-linecap="round"/>
</svg>
