<svg width="15" height="13" viewBox="0 0 15 13" fill="none" xmlns="http://www.w3.org/2000/svg">
<path d="M14.9947 3.78413C14.9983 3.74303 14.9983 3.70175 14.9947 3.66065L13.4953 0.411044C13.4367 0.282592 13.3324 0.173652 13.1976 0.100029C13.0628 0.0264053 12.9045 -0.00807326 12.7455 0.00159451H2.24921C2.09905 0.0014685 1.95231 0.0404303 1.828 0.113433C1.70368 0.186436 1.60751 0.290117 1.55196 0.411044L0.0524815 3.66065C0.0488676 3.70175 0.0488676 3.74303 0.0524815 3.78413C0.0275684 3.82031 0.00982872 3.85985 0 3.90112C0.00834501 4.35037 0.150866 4.79008 0.413663 5.17735C0.67646 5.56463 1.05056 5.88625 1.49947 6.11085V12.3501C1.49947 12.5224 1.57846 12.6878 1.71907 12.8096C1.85967 12.9315 2.05037 13 2.24921 13H12.7455C12.9444 13 13.1351 12.9315 13.2757 12.8096C13.4163 12.6878 13.4953 12.5224 13.4953 12.3501V6.13684C13.9485 5.91001 14.3254 5.58429 14.5885 5.19208C14.8515 4.79986 14.9916 4.3548 14.9947 3.90112C15.0018 3.86236 15.0018 3.82289 14.9947 3.78413ZM8.2471 11.7002H6.74763V9.10048H8.2471V11.7002ZM11.9958 11.7002H9.74658V8.45056C9.74658 8.27819 9.66759 8.11288 9.52698 7.991C9.38638 7.86911 9.19568 7.80064 8.99684 7.80064H5.99789C5.79905 7.80064 5.60835 7.86911 5.46775 7.991C5.32715 8.11288 5.24816 8.27819 5.24816 8.45056V11.7002H2.99895V6.5008C3.4259 6.49871 3.84741 6.41762 4.2353 6.26294C4.62319 6.10827 4.96851 5.88358 5.24816 5.60391C5.52958 5.88053 5.87569 6.10208 6.26349 6.25383C6.65128 6.40558 7.07189 6.48406 7.49737 6.48406C7.92284 6.48406 8.34345 6.40558 8.73125 6.25383C9.11904 6.10208 9.46515 5.88053 9.74658 5.60391C10.0262 5.88358 10.3715 6.10827 10.7594 6.26294C11.1473 6.41762 11.5688 6.49871 11.9958 6.5008V11.7002ZM11.9958 5.20096C11.5981 5.20096 11.2167 5.06401 10.9355 4.82024C10.6543 4.57647 10.4963 4.24586 10.4963 3.90112C10.4963 3.72875 10.4173 3.56344 10.2767 3.44155C10.1361 3.31967 9.94542 3.2512 9.74658 3.2512C9.54773 3.2512 9.35704 3.31967 9.21643 3.44155C9.07583 3.56344 8.99684 3.72875 8.99684 3.90112C8.99684 4.24586 8.83886 4.57647 8.55765 4.82024C8.27645 5.06401 7.89505 5.20096 7.49737 5.20096C7.09968 5.20096 6.71828 5.06401 6.43708 4.82024C6.15587 4.57647 5.99789 4.24586 5.99789 3.90112C5.99789 3.72875 5.9189 3.56344 5.7783 3.44155C5.6377 3.31967 5.447 3.2512 5.24816 3.2512C5.04931 3.2512 4.85862 3.31967 4.71801 3.44155C4.57741 3.56344 4.49842 3.72875 4.49842 3.90112C4.5058 4.07181 4.47433 4.2421 4.4058 4.40225C4.33726 4.56241 4.23301 4.70929 4.099 4.83452C3.96498 4.95975 3.80382 5.06087 3.62472 5.1321C3.44562 5.20334 3.25209 5.2433 3.05518 5.2497C2.65749 5.26263 2.27017 5.13808 1.97842 4.90345C1.83396 4.78728 1.71731 4.64758 1.63513 4.49232C1.55295 4.33707 1.50686 4.1693 1.49947 3.9986L2.75903 1.30144H12.2357L13.4953 3.9986C13.4668 4.32618 13.2964 4.63227 13.0182 4.85533C12.74 5.0784 12.3747 5.20188 11.9958 5.20096Z" fill="black"/>
</svg>
