<svg width="18" height="25" viewBox="0 0 18 25" fill="none" xmlns="http://www.w3.org/2000/svg">
<path d="M15.4286 0C16.1106 0 16.7646 0.263392 17.2468 0.732233C17.7291 1.20107 18 1.83696 18 2.5V22.5C18 23.163 17.7291 23.7989 17.2468 24.2678C16.7646 24.7366 16.1106 25 15.4286 25H2.57143C1.88944 25 1.23539 24.7366 0.753154 24.2678C0.270917 23.7989 0 23.163 0 22.5V2.5C0 1.83696 0.270917 1.20107 0.753154 0.732233C1.23539 0.263392 1.88944 0 2.57143 0L15.4286 0ZM16.2 19.235H1.8V22.5C1.8 22.6989 1.88128 22.8897 2.02595 23.0303C2.17062 23.171 2.36683 23.25 2.57143 23.25H15.4286C15.6332 23.25 15.8294 23.171 15.9741 23.0303C16.1187 22.8897 16.2 22.6989 16.2 22.5V19.235ZM9 20C9.34099 20 9.66802 20.1317 9.90914 20.3661C10.1503 20.6005 10.2857 20.9185 10.2857 21.25C10.2857 21.5815 10.1503 21.8995 9.90914 22.1339C9.66802 22.3683 9.34099 22.5 9 22.5C8.65901 22.5 8.33198 22.3683 8.09086 22.1339C7.84974 21.8995 7.71429 21.5815 7.71429 21.25C7.71429 20.9185 7.84974 20.6005 8.09086 20.3661C8.33198 20.1317 8.65901 20 9 20ZM15.4286 1.75H2.57143C2.36683 1.75 2.17062 1.82902 2.02595 1.96967C1.88128 2.11032 1.8 2.30109 1.8 2.5V17.485H16.2V2.5C16.2 2.30109 16.1187 2.11032 15.9741 1.96967C15.8294 1.82902 15.6332 1.75 15.4286 1.75Z" fill="#FF7C7C"/>
</svg>
