<svg width="137" height="132" viewBox="0 0 137 132" fill="none" xmlns="http://www.w3.org/2000/svg">
<path d="M68.4794 132C35.5385 132 0 111.338 0 66C0 20.6619 35.5385 0 68.4794 0C86.78 0 103.664 6.02147 116.179 17.0018C129.757 29.0447 136.959 46.0465 136.959 66C136.959 85.9535 129.757 102.837 116.179 114.88C103.664 125.86 86.6619 132 68.4794 132Z" fill="url(#paint0_radial_116_70)"/>
<path d="M125.022 26.766C131.315 36.9199 134.597 49.01 134.597 62.458C134.597 82.4115 127.395 99.2952 113.818 111.338C101.302 122.318 84.3005 128.458 66.1181 128.458C44.795 128.458 22.4329 119.78 9.23291 101.373C21.937 122.224 45.834 132 68.4794 132C86.6619 132 103.664 125.86 116.179 114.88C129.757 102.837 136.959 85.9535 136.959 66C136.959 50.9582 132.862 37.5929 125.022 26.766Z" fill="#EB8F00"/>
<path d="M68.9517 85.4812C81.7031 85.4812 90.6762 92.093 93.3918 96.2254C94.4308 97.5359 94.6551 99.307 93.9821 100.83C93.4626 101.786 92.4709 102.377 91.3846 102.365C90.9832 102.341 90.5818 102.259 90.204 102.129C83.297 100.157 76.1421 99.1653 68.9517 99.1771C61.7968 99.1299 54.6655 100.169 47.8176 102.247C47.4397 102.377 47.0383 102.459 46.6369 102.483C45.5507 102.518 44.5353 101.928 44.0394 100.948C43.3546 99.425 43.5907 97.6422 44.6297 96.3435C47.2272 92.093 56.3185 85.4812 68.9517 85.4812Z" fill="#422B0D"/>
<path d="M37.0734 115.116C29.3989 115.116 23.4955 107.678 23.4955 101.302C23.4955 96.8157 25.5027 91.6208 28.3363 84.4186C28.6905 83.356 29.1628 82.2934 29.6351 81.1127C31.288 76.8386 33.1771 72.659 35.3023 68.5975C35.7274 67.7828 36.6955 67.4286 37.5456 67.771C37.8998 67.9481 38.195 68.2433 38.3721 68.5975C40.1431 72.2576 42.1503 76.7442 44.1574 81.3488C49.1163 92.4472 50.5331 96.9338 50.5331 101.42C50.6512 107.678 44.6297 115.116 37.0734 115.116Z" fill="url(#paint1_radial_116_70)"/>
<path d="M45.3382 106.604C43.6026 109.284 39.6709 108.776 39.6709 104.325C39.6709 101.479 40.2494 86.8626 42.6934 88.9052C46.7077 92.2347 47.8412 102.814 45.3382 106.604Z" fill="#81D4FA"/>
<path d="M28.8086 46.873C27.3327 49.0572 23.8261 47.6522 24.8533 45.0075C27.2737 39.2576 31.7957 34.6529 37.5102 32.1499C39.6 31.1581 41.8551 30.5324 44.1574 30.2844C45.3263 30.0483 46.4715 30.8039 46.7077 31.9728C46.9438 33.1417 46.1882 34.2869 45.0075 34.523H44.854C38.2658 36.7073 32.6104 41.064 28.8086 46.873Z" fill="#422B0D"/>
<path d="M108.257 46.873C109.732 49.0572 113.239 47.6522 112.212 45.0075C109.78 39.2458 105.234 34.6411 99.4959 32.1499C97.4061 31.1581 95.1746 30.5324 92.8723 30.2844C91.7034 30.0483 90.5582 30.8039 90.3338 31.9728C90.0977 33.1417 90.8533 34.2869 92.0222 34.523H92.1757C98.7757 36.6955 104.455 41.0522 108.257 46.873Z" fill="#422B0D"/>
<path d="M46.1292 47.1563C41.1821 47.1563 36.6837 51.3359 36.6837 58.2783C36.6837 65.2207 41.1821 69.3885 46.1292 69.3885C51.0762 69.3885 55.5746 65.2089 55.5746 58.2783C55.5746 51.3477 51.0762 47.1563 46.1292 47.1563Z" fill="#422B0D"/>
<path d="M45.6687 51.7964C43.9922 50.9935 41.9732 51.7019 41.1585 53.3785C40.5328 54.6891 40.8161 56.2594 41.8669 57.2747C43.5435 58.0776 45.5625 57.3692 46.3771 55.6926C47.0029 54.3821 46.7195 52.8118 45.6687 51.7964Z" fill="#896024"/>
<path d="M91.3846 47.1563C86.4376 47.1563 81.9392 51.3359 81.9392 58.2783C81.9392 65.2207 86.4376 69.3885 91.3846 69.3885C96.3317 69.3885 100.83 65.2089 100.83 58.2783C100.83 51.3477 96.3553 47.1563 91.3846 47.1563Z" fill="#422B0D"/>
<path d="M90.9478 51.7964C89.2712 50.9935 87.2522 51.7019 86.4376 53.3785C85.8118 54.6891 86.0952 56.2594 87.146 57.2747C88.8226 58.0776 90.8415 57.3692 91.6562 55.6926C92.2819 54.3821 91.9986 52.8118 90.9478 51.7964Z" fill="#896024"/>
<defs>
<radialGradient id="paint0_radial_116_70" cx="0" cy="0" r="1" gradientUnits="userSpaceOnUse" gradientTransform="translate(68.4794 66) scale(67.2512 67.2512)">
<stop offset="0.5" stop-color="#FDE030"/>
<stop offset="0.92" stop-color="#F7C02B"/>
<stop offset="1" stop-color="#F4A223"/>
</radialGradient>
<radialGradient id="paint1_radial_116_70" cx="0" cy="0" r="1" gradientUnits="userSpaceOnUse" gradientTransform="translate(38.0415 73.6662) scale(31.1936 48.0381)">
<stop offset="0.46" stop-color="#29B6F6"/>
<stop offset="1" stop-color="#1E88E5"/>
</radialGradient>
</defs>
</svg>
