<svg width="24" height="24" viewBox="0 0 24 24" fill="none" xmlns="http://www.w3.org/2000/svg">
<path d="M12.9167 19.4058C12.8322 20.5173 12.6209 21.2431 12.0966 21.7751C11.2202 22.6666 9.80966 22.6666 6.9865 22.6666C4.16333 22.6666 2.75392 22.6666 1.87642 21.7751C1 20.8846 1 19.4502 1 16.5816V11.3653C1 8.49664 1 7.06231 1.8775 6.17073C2.40942 5.62906 3.14067 5.41673 4.26516 5.33331M6.94966 19.4166H6.95941" stroke="#524F4F" stroke-width="2" stroke-linecap="round" stroke-linejoin="round"/>
<path d="M16.2511 1H13.9155C10.7717 1 9.20082 1 8.26915 1.97825C7.3364 2.95758 7.43499 4.50241 7.62999 7.59425L7.76649 9.74466C7.81199 10.4542 7.83365 10.8096 7.91382 11.1064C8.06827 11.6701 8.37742 12.1793 8.80628 12.5764C9.23515 12.9735 9.7666 13.2426 10.3405 13.3532C10.646 13.4139 11.0067 13.4139 11.7293 13.4139C12.7357 13.4139 12.7216 14.2448 12.7216 15.0671C12.7216 15.7062 12.7216 16.0247 12.9296 16.1342C13.1376 16.2436 13.4063 16.067 13.9458 15.7127L17.1525 13.6067C17.3414 13.4757 17.5672 13.4081 17.7971 13.4139C19.1209 13.4139 19.7828 13.4139 20.3191 13.2146C22.1781 12.5245 22.333 10.8074 22.4402 9.11416L22.5366 7.59425C22.7316 4.50241 22.8302 2.95758 21.8975 1.97825C20.9658 1 19.395 1 16.2511 1Z" stroke="#524F4F" stroke-width="2" stroke-linecap="round" stroke-linejoin="round"/>
<path d="M18.5 7.09766V9.14062C18.5 9.32711 18.4258 9.50583 18.2939 9.6377C18.1621 9.76956 17.9834 9.84375 17.7969 9.84375H13.2031C13.0166 9.84375 12.8379 9.76956 12.7061 9.6377C12.5742 9.50583 12.5 9.32711 12.5 9.14062V7.09766H18.5ZM13.75 7.62891C13.6246 7.62891 13.5047 7.67894 13.416 7.76758C13.3274 7.85622 13.2773 7.97621 13.2773 8.10156V8.375C13.2773 8.50036 13.3274 8.62034 13.416 8.70898C13.5047 8.79762 13.6246 8.84766 13.75 8.84766H14.4062C14.5316 8.84766 14.6516 8.79762 14.7402 8.70898C14.8289 8.62034 14.8789 8.50036 14.8789 8.375V8.10156C14.8789 7.97621 14.8289 7.85622 14.7402 7.76758C14.6516 7.67894 14.5316 7.62891 14.4062 7.62891H13.75ZM13.2031 5.15625H17.7969C17.9834 5.15625 18.1621 5.23044 18.2939 5.3623C18.4258 5.49417 18.5 5.67289 18.5 5.85938V6.15234H12.5V5.85938C12.5 5.67289 12.5742 5.49417 12.7061 5.3623C12.8379 5.23044 13.0166 5.15625 13.2031 5.15625Z" fill="#524F4F" stroke="#524F4F" stroke-width="0.125"/>
</svg>
