<svg width="12" height="16" viewBox="0 0 12 16" fill="none" xmlns="http://www.w3.org/2000/svg">
<path d="M3.07793 0.0804897L2.39678 0.28569C1.79028 0.468592 1.24865 0.820945 0.835641 1.30128C0.422629 1.78161 0.155427 2.36993 0.0654839 2.99699C-0.216666 4.96159 0.414134 7.25869 1.93508 9.89304C3.45223 12.5207 5.12233 14.2136 6.96058 14.9546C7.55122 15.1927 8.1978 15.2561 8.82344 15.1374C9.44908 15.0187 10.0275 14.7228 10.4898 14.2849L11.0047 13.7966C11.3391 13.4802 11.5472 13.0531 11.5903 12.5948C11.6335 12.1364 11.5088 11.678 11.2394 11.3047L9.95118 9.51874C9.77702 9.27762 9.53178 9.09705 9.24982 9.00233C8.96787 8.9076 8.66335 8.90348 8.37893 8.99054L6.43048 9.58619L6.38013 9.59569C6.16543 9.62704 5.66953 9.16249 5.05203 8.09279C4.40603 6.97369 4.27303 6.31914 4.45068 6.15004L5.44153 5.22569C5.80388 4.88793 6.05139 4.44521 6.14936 3.95964C6.24732 3.47407 6.19082 2.97002 5.98778 2.51819L5.35888 1.12074C5.16977 0.700216 4.8342 0.362809 4.41471 0.171417C3.99521 -0.0199759 3.51949 -0.052293 3.07793 0.0804897ZM4.49343 1.51024L5.12043 2.90769C5.24254 3.17866 5.27669 3.48108 5.21807 3.77245C5.15946 4.06383 5.01103 4.32952 4.79363 4.53219L3.79993 5.45749C3.16438 6.05979 3.37528 7.08769 4.23028 8.56779C5.03398 9.96049 5.76738 10.6483 6.55588 10.5286L6.67368 10.5039L8.65728 9.89874C8.7521 9.86962 8.85365 9.8709 8.9477 9.90242C9.04175 9.93394 9.12357 9.99411 9.18168 10.0745L10.4699 11.8605C10.6048 12.0471 10.6673 12.2764 10.6458 12.5057C10.6243 12.7349 10.5203 12.9486 10.353 13.1069L9.83718 13.5952C9.50691 13.9078 9.09385 14.1189 8.64707 14.2037C8.2003 14.2884 7.7386 14.243 7.31683 14.073C5.70373 13.4232 4.17898 11.8776 2.75873 9.41804C1.33468 6.95279 0.758034 4.85614 1.00598 3.13189C1.07017 2.6839 1.26101 2.26357 1.55605 1.9204C1.85109 1.57722 2.23804 1.32549 2.67133 1.19484L3.35248 0.98964C3.57332 0.923281 3.81075 0.939508 4.0205 1.0353C4.23026 1.13108 4.39801 1.29989 4.49248 1.51024H4.49343Z" fill="black"/>
</svg>
