<svg width="16" height="16" viewBox="0 0 16 16" fill="none" xmlns="http://www.w3.org/2000/svg">
<path d="M14.669 0.788576C14.1639 0.283652 13.479 0 12.7648 0C12.0507 0 11.3657 0.283652 10.8607 0.788576L5.81379 5.83545C5.74858 5.90045 5.69939 5.97973 5.6701 6.06701L4.18572 10.5201C4.15075 10.6247 4.1456 10.737 4.17085 10.8443C4.19609 10.9517 4.25073 11.0499 4.32865 11.1279C4.40657 11.206 4.50469 11.2608 4.612 11.2862C4.71931 11.3116 4.83158 11.3066 4.93622 11.2718L9.38935 9.78745C9.47706 9.75832 9.55676 9.70912 9.6221 9.64376L14.669 4.59689C15.1739 4.09183 15.4575 3.4069 15.4575 2.69273C15.4575 1.97856 15.1739 1.29364 14.669 0.788576ZM11.7002 1.62814C11.9841 1.3531 12.3647 1.2007 12.7599 1.20381C13.1551 1.20693 13.5333 1.36531 13.8128 1.64479C14.0922 1.92427 14.2506 2.30242 14.2537 2.69765C14.2569 3.09287 14.1044 3.47348 13.8294 3.75733L8.8811 8.70445L5.68672 9.76964L6.75191 6.57526L11.7002 1.62814ZM7.1236 2.39526C7.26966 2.39526 7.41454 2.4012 7.55822 2.4107L8.60679 1.36214C7.10381 1.04258 5.5378 1.21746 4.14234 1.8607C2.74689 2.50394 1.59676 3.58107 0.863536 4.93141C0.130308 6.28176 -0.146737 7.83296 0.0737279 9.35364C0.294193 10.8743 1.00035 12.283 2.08687 13.3695C3.17339 14.456 4.58205 15.1622 6.10273 15.3826C7.6234 15.6031 9.1746 15.3261 10.5249 14.5928C11.8753 13.8596 12.9524 12.7095 13.5957 11.314C14.2389 9.91856 14.4138 8.35255 14.0942 6.84958L13.0457 7.89933C13.1327 9.08893 12.8595 10.2772 12.2615 11.3093C11.6636 12.3414 10.7686 13.1694 9.69332 13.6856C8.61799 14.2017 7.41213 14.382 6.23285 14.203C5.05357 14.024 3.95555 13.4939 3.08185 12.6819C2.20815 11.8699 1.59928 10.8135 1.33457 9.65046C1.06985 8.48742 1.16157 7.27161 1.59777 6.16144C2.03397 5.05127 2.79443 4.09821 3.78006 3.42644C4.7657 2.75468 5.93081 2.39534 7.1236 2.39526Z" fill="black"/>
</svg>
