<svg width="21" height="19" viewBox="0 0 21 19" fill="none" xmlns="http://www.w3.org/2000/svg">
<g clip-path="url(#clip0_33_31)">
<path d="M18.375 9.5C17.6504 9.5 17.0317 9.26807 16.519 8.8042C16.0063 8.34033 15.75 7.7806 15.75 7.125C15.75 7.7806 15.4937 8.34033 14.981 8.8042C14.4683 9.26807 13.8496 9.5 13.125 9.5C12.4004 9.5 11.7817 9.26807 11.269 8.8042C10.7563 8.34033 10.5 7.7806 10.5 7.125C10.5 7.7806 10.2437 8.34033 9.73096 8.8042C9.21826 9.26807 8.59961 9.5 7.875 9.5C7.15039 9.5 6.53174 9.26807 6.01904 8.8042C5.50635 8.34033 5.25 7.7806 5.25 7.125C5.25 7.7806 4.99365 8.34033 4.48096 8.8042C3.96826 9.26807 3.34961 9.5 2.625 9.5C1.90039 9.5 1.28174 9.26807 0.769043 8.8042C0.256348 8.34033 0 7.7806 0 7.125C0 6.70443 0.21875 6.11068 0.65625 5.34375L2.54297 0.90918C2.63867 0.649414 2.81641 0.432943 3.07617 0.259766C3.33594 0.0865885 3.5957 0 3.85547 0H17.2266C17.5 0 17.7632 0.0865885 18.0161 0.259766C18.269 0.432943 18.4434 0.649414 18.5391 0.90918L20.3438 5.34375C20.3711 5.4056 20.436 5.53857 20.5386 5.74268C20.6411 5.94678 20.7197 6.10758 20.7744 6.2251C20.8291 6.34261 20.8804 6.48796 20.9282 6.66113C20.9761 6.83431 21 6.98893 21 7.125C21 7.7806 20.7437 8.34033 20.231 8.8042C19.7183 9.26807 19.0996 9.5 18.375 9.5ZM1.3125 16.625V11.875C1.3125 11.541 1.44238 11.2596 1.70215 11.0308C1.96191 10.8019 2.26953 10.6875 2.625 10.6875C2.98047 10.6875 3.28809 10.8019 3.54785 11.0308C3.80762 11.2596 3.9375 11.541 3.9375 11.875V16.625H7.875V11.875C7.875 11.541 8.00146 11.2596 8.25439 11.0308C8.50732 10.8019 8.81836 10.6875 9.1875 10.6875H11.8125C12.1816 10.6875 12.4927 10.8019 12.7456 11.0308C12.9985 11.2596 13.125 11.541 13.125 11.875V16.625H17.0625V11.875C17.0625 11.541 17.1924 11.2596 17.4521 11.0308C17.7119 10.8019 18.0195 10.6875 18.375 10.6875C18.7305 10.6875 19.0381 10.8019 19.2979 11.0308C19.5576 11.2596 19.6875 11.541 19.6875 11.875V16.625C20.043 16.625 20.3506 16.7394 20.6104 16.9683C20.8701 17.1971 21 17.4754 21 17.8032C21 18.131 20.8701 18.4124 20.6104 18.6475C20.3506 18.8825 20.043 19 19.6875 19H1.3125C0.957031 19 0.649414 18.8825 0.389648 18.6475C0.129883 18.4124 0 18.131 0 17.8032C0 17.4754 0.129883 17.1971 0.389648 16.9683C0.649414 16.7394 0.957031 16.625 1.3125 16.625Z" fill="black"/>
</g>
<defs>
<clipPath id="clip0_33_31">
<rect width="21" height="19" fill="white"/>
</clipPath>
</defs>
</svg>
