<svg width="14" height="14" viewBox="0 0 14 14" fill="none" xmlns="http://www.w3.org/2000/svg">
<path d="M6.58446 6.59539C8.37739 6.59539 9.83893 5.08725 9.83893 3.25155C9.83893 1.43012 8.3925 0 6.58446 0C4.79893 0 3.33 1.45866 3.33 3.26582C3.33739 5.09423 4.79893 6.59539 6.58446 6.59539ZM6.58446 5.52105C5.48454 5.52105 4.54275 4.52534 4.54275 3.26552C4.54275 2.02786 5.46943 1.07434 6.58446 1.07434C7.71429 1.07434 8.62586 2.01359 8.62586 3.25155C8.62586 4.51077 7.69918 5.52105 6.58446 5.52105ZM1.85336 13.1771H11.3156C12.5659 13.1771 13.1612 12.821 13.1612 12.0387C13.1612 10.1742 10.675 7.47787 6.58446 7.47787C2.49364 7.47787 0 10.1745 0 12.0384C0 12.821 0.595286 13.1771 1.85336 13.1771ZM1.49175 12.1022C1.29568 12.1022 1.21307 12.0524 1.21307 11.903C1.21307 10.7361 3.12654 8.55161 6.58414 8.55161C10.0424 8.55161 11.9481 10.7361 11.9481 11.903C11.9481 12.0524 11.8729 12.1022 11.6772 12.1022H1.49175Z" fill="black"/>
</svg>
