<svg width="29" height="21" viewBox="0 0 29 21" fill="none" xmlns="http://www.w3.org/2000/svg">
<path d="M5.5 17.75H23" stroke="#FEB965" stroke-width="0.4"/>
<path d="M2.81343 15.3314V1.75C2.81343 1.19772 3.26115 0.75 3.81343 0.75H25.1866C25.7389 0.75 26.1866 1.19772 26.1866 1.75V15.3314M2.81343 15.3314H26.1866M2.81343 15.3314L0.978704 18.2129C0.554828 18.8786 1.03302 19.75 1.82223 19.75H27.1778C27.967 19.75 28.4452 18.8786 28.0213 18.2129L26.1866 15.3314" stroke="#FEA02E" stroke-width="1.5"/>
<path d="M18.7987 7.15732V7.86044H10.3292V7.15732H18.7987ZM18.7987 8.49645V9.19957H10.3292V8.49645H18.7987ZM11.4062 5.20455L12.6559 10.0146H12.7166L13.995 5.20455H15.1328L16.4112 10.0178H16.4719L17.7216 5.20455H18.8338L17.0792 11.75H15.8679L14.5927 7.15732H14.5415L13.2599 11.75H12.0487L10.294 5.20455H11.4062Z" fill="#FEA02E"/>
</svg>
